<mxfile host="app.diagrams.net" modified="2021-08-31T08:35:56.543Z" agent="5.0 (Windows NT 10.0; Win64; x64) AppleWebKit/537.36 (KHTML, like Gecko) Chrome/92.0.4515.159 Safari/537.36" etag="qkxzuhf_7tFjLEhaC7-V" version="15.0.3" type="github">
  <diagram id="WiYSkN_PFwNk-PM7Bung" name="第 1 页">
    <mxGraphModel dx="2249" dy="762" grid="1" gridSize="10" guides="1" tooltips="1" connect="1" arrows="1" fold="1" page="1" pageScale="1" pageWidth="827" pageHeight="1169" math="0" shadow="0">
      <root>
        <mxCell id="0" />
        <mxCell id="1" parent="0" />
        <mxCell id="kft0x-aCpBcUMIbDIcwz-1" value="车辆中心故障拓扑" style="whiteSpace=wrap;html=1;" vertex="1" parent="1">
          <mxGeometry x="470" y="60" width="160" height="60" as="geometry" />
        </mxCell>
        <mxCell id="kft0x-aCpBcUMIbDIcwz-2" value="MD主数据故障" style="whiteSpace=wrap;html=1;" vertex="1" parent="1">
          <mxGeometry x="-20" y="250" width="160" height="60" as="geometry" />
        </mxCell>
        <mxCell id="kft0x-aCpBcUMIbDIcwz-4" value="远控故障" style="whiteSpace=wrap;html=1;" vertex="1" parent="1">
          <mxGeometry x="1050" y="260" width="160" height="60" as="geometry" />
        </mxCell>
        <mxCell id="kft0x-aCpBcUMIbDIcwz-5" value="车辆绑定故障" style="whiteSpace=wrap;html=1;" vertex="1" parent="1">
          <mxGeometry x="300" y="250" width="160" height="60" as="geometry" />
        </mxCell>
        <mxCell id="kft0x-aCpBcUMIbDIcwz-6" value="车型套餐管理" style="whiteSpace=wrap;html=1;" vertex="1" parent="1">
          <mxGeometry x="610" y="250" width="160" height="60" as="geometry" />
        </mxCell>
        <mxCell id="kft0x-aCpBcUMIbDIcwz-7" value="T服务周期" style="whiteSpace=wrap;html=1;" vertex="1" parent="1">
          <mxGeometry x="610" y="370" width="160" height="60" as="geometry" />
        </mxCell>
        <mxCell id="kft0x-aCpBcUMIbDIcwz-8" value="车辆分享能力项" style="whiteSpace=wrap;html=1;" vertex="1" parent="1">
          <mxGeometry x="300" y="370" width="160" height="60" as="geometry" />
        </mxCell>
      </root>
    </mxGraphModel>
  </diagram>
</mxfile>
